<svg xmlns="http://www.w3.org/2000/svg" viewBox="0 0 48 48">
  <defs>
    <linearGradient id="g1" x1="0%" y1="0%" x2="100%" y2="100%">
      <stop offset="0%" stop-color="#3B82F6"/>
      <stop offset="100%" stop-color="#06B6D4"/>
    </linearGradient>
    <linearGradient id="g2" x1="0%" y1="100%" x2="100%" y2="0%">
      <stop offset="0%" stop-color="#3B82F6" stop-opacity="0.4"/>
      <stop offset="100%" stop-color="#06B6D4" stop-opacity="0.8"/>
    </linearGradient>
  </defs>
  <!-- Hexagon base -->
  <polygon points="24,3 42,13 42,35 24,45 6,35 6,13" fill="url(#g1)" opacity="0.15"/>
  <polygon points="24,3 42,13 42,35 24,45 6,35 6,13" fill="none" stroke="url(#g1)" stroke-width="1.5"/>
  <!-- Inner hexagon -->
  <polygon points="24,9 37,16 37,32 24,39 11,32 11,16" fill="none" stroke="url(#g2)" stroke-width="0.8" opacity="0.6"/>
  <!-- Rising trend line -->
  <polyline points="14,31 20,24 26,27 34,17" fill="none" stroke="url(#g1)" stroke-width="2.5" stroke-linecap="round" stroke-linejoin="round"/>
  <!-- Trend dots -->
  <circle cx="14" cy="31" r="2" fill="#3B82F6"/>
  <circle cx="20" cy="24" r="1.5" fill="#3B82F6" opacity="0.7"/>
  <circle cx="26" cy="27" r="1.5" fill="#3B82F6" opacity="0.7"/>
  <circle cx="34" cy="17" r="2.5" fill="#06B6D4"/>
  <!-- Arrow head at trend peak -->
  <polyline points="31,14 34,17 37,14" fill="none" stroke="#06B6D4" stroke-width="2" stroke-linecap="round" stroke-linejoin="round"/>
</svg>
